<?xml version="1.0" encoding="UTF-8" standalone="no"?>

<!-- Created with PainterSVG V3.92 -->

<svg  xmlns="http://www.w3.org/2000/svg" xmlns:xlink="http://www.w3.org/1999/xlink" xmlns:psvg="http://www.paintersvg.com/namespace.html" id="svg"  width="512" height="512" viewBox="0 0 512 512">
<defs></defs>
<g psvg:layer="layer1">
<g id="group4">
<path d=" M 78.381,65.6136 256.4237,65.828 256.2093,243.8707 78.1667,243.6563 78.381,65.6136 Z" style="fill:none;stroke:#F9DB17;stroke-width:15;stroke-opacity:1;stroke-linecap:butt;stroke-linejoin:miter;stroke-miterlimit:4;stroke-dashoffset:0;" transform="matrix(0.6029,-0.5534,0.5534,0.6029,-56.5702,248.4207)"/>
<path d=" M 298.744,288.425 476.7866,288.6394 476.5722,466.682 298.5296,466.4677 298.744,288.425 Z" style="fill:none;stroke:#EE2028;stroke-width:15;stroke-opacity:1;stroke-linecap:butt;stroke-linejoin:miter;stroke-miterlimit:4;stroke-dashoffset:0;" transform="matrix(0.6029,-0.5534,0.5534,0.6029,-56.5702,248.4207)"/>
<path d=" M 73.6665,282.1269 251.7092,282.3412 251.4948,460.3839 73.4521,460.1695 73.6665,282.1269 Z" style="fill:none;stroke:#3DF43F;stroke-width:15;stroke-opacity:1;stroke-linecap:butt;stroke-linejoin:miter;stroke-miterlimit:4;stroke-dashoffset:0;" transform="matrix(0.6029,-0.5534,0.5534,0.6029,-56.5702,248.4207)"/>
<path d=" M 297.0799,63.5128 475.1226,63.7272 474.9081,241.7698 296.8655,241.5554 297.0799,63.5128 Z" style="fill:none;stroke:#3144D4;stroke-width:15;stroke-opacity:1;stroke-linecap:butt;stroke-linejoin:miter;stroke-miterlimit:4;stroke-dashoffset:0;" transform="matrix(0.6029,-0.5534,0.5534,0.6029,-56.5702,248.4207)"/>
</g>
</g>
</svg>
